HIERARCHY
ROOT Hips
{
	OFFSET	0.00	0.00	0.00
	CHANNELS 6 Xposition Yposition Zposition Zrotation Xrotation Yrotation
	JOINT LeftUpLeg
	{
		OFFSET	 0.126116	-0.014019	-0.065224
		CHANNELS 3 Zrotation Xrotation Yrotation
		JOINT LeftLeg
		{
			OFFSET	 0.000000	 0.000000	 0.569914
			CHANNELS 3 Zrotation Xrotation Yrotation
			JOINT LeftFoot
			{
				OFFSET	 0.000000	 0.000000	 0.544423
				CHANNELS 3 Zrotation Xrotation Yrotation
				JOINT LeftToeBase
				{
					OFFSET	 0.000000	 0.000000	 0.207117
					CHANNELS 3 Zrotation Xrotation Yrotation
					End Site
					{
						OFFSET	 0.000000	 0.000000	 0.207117
					}
				}
			}
		}
	}
	JOINT RightUpLeg
	{
		OFFSET	-0.124023	-0.008373	-0.065224
		CHANNELS 3 Zrotation Xrotation Yrotation
		JOINT RightLeg
		{
			OFFSET	 0.000000	 0.000000	 0.570047
			CHANNELS 3 Zrotation Xrotation Yrotation
			JOINT RightFoot
			{
				OFFSET	 0.000000	 0.000000	 0.544354
				CHANNELS 3 Zrotation Xrotation Yrotation
				JOINT RightToeBase
				{
					OFFSET	 0.000000	 0.000000	 0.207540
					CHANNELS 3 Zrotation Xrotation Yrotation
					End Site
					{
						OFFSET	 0.000000	 0.000000	 0.207540
					}
				}
			}
		}
	}
	JOINT Spine
	{
		OFFSET	 0.000184	-0.007763	 0.117403
		CHANNELS 3 Zrotation Xrotation Yrotation
		JOINT Spine1
		{
			OFFSET	 0.000000	 0.000000	 0.137269
			CHANNELS 3 Zrotation Xrotation Yrotation
			JOINT Spine2
			{
				OFFSET	 0.000000	 0.000000	 0.156879
				CHANNELS 3 Zrotation Xrotation Yrotation
				JOINT LeftShoulder
				{
					OFFSET	 0.080501	-0.002496	 0.160144
					CHANNELS 3 Zrotation Xrotation Yrotation
					JOINT LeftArm
					{
						OFFSET	 0.000000	 0.000000	 0.164363
						CHANNELS 3 Zrotation Xrotation Yrotation
						JOINT LeftForeArm
						{
							OFFSET	 0.000000	 0.000000	 0.364576
							CHANNELS 3 Zrotation Xrotation Yrotation
							JOINT LeftHand
							{
								OFFSET	 0.000000	 0.000000	 0.360812
								CHANNELS 3 Zrotation Xrotation Yrotation
								JOINT LeftHandIndex1
								{
									OFFSET	 0.000000	 0.000000	 0.086006
									CHANNELS 3 Zrotation Xrotation Yrotation
									JOINT LeftHandIndex2
									{
										OFFSET	 0.000000	 0.000000	 0.047236
										CHANNELS 3 Zrotation Xrotation Yrotation
										JOINT LeftHandIndex3
										{
											OFFSET	-0.004284	-0.000551	 0.038166
											CHANNELS 3 Zrotation Xrotation Yrotation
											End Site
											{
												OFFSET	-0.004284	-0.000551	 0.038166
											}
										}
									}
								}
							}
						}
					}
				}
				JOINT Neck
				{
					OFFSET	 0.000000	 0.000000	 0.176489
					CHANNELS 3 Zrotation Xrotation Yrotation
					JOINT Head
					{
						OFFSET	 0.000000	-0.001747	 0.077940
						CHANNELS 3 Zrotation Xrotation Yrotation
						End Site
						{
							OFFSET	 0.000000	-0.001747	 0.077940
						}
					}
				}
				JOINT RightShoulder
				{
					OFFSET	-0.080363	 0.000306	 0.159706
					CHANNELS 3 Zrotation Xrotation Yrotation
					JOINT RightArm
					{
						OFFSET	 0.000000	 0.000000	 0.164196
						CHANNELS 3 Zrotation Xrotation Yrotation
						JOINT RightForeArm
						{
							OFFSET	 0.000000	 0.000000	 0.365611
							CHANNELS 3 Zrotation Xrotation Yrotation
							JOINT RightHand
							{
								OFFSET	 0.000000	 0.000000	 0.360648
								CHANNELS 3 Zrotation Xrotation Yrotation
								JOINT RightHandIndex1
								{
									OFFSET	 0.000000	 0.000000	 0.069977
									CHANNELS 3 Zrotation Xrotation Yrotation
									JOINT RightHandIndex2
									{
										OFFSET	 0.000000	 0.000000	 0.052305
										CHANNELS 3 Zrotation Xrotation Yrotation
										JOINT RightHandIndex3
										{
											OFFSET	 0.009002	-0.000782	 0.042196
											CHANNELS 3 Zrotation Xrotation Yrotation
											End Site
											{
												OFFSET	 0.009002	-0.000782	 0.042196
											}
										}
									}
								}
							}
						}
					}
				}
			}
		}
	}
}
MOTION
Frames:    13
Frame Time: 0.03333334
-0.037381	 0.309553	 0.988959	 3.328814	 33.731620	-8.329274	 81.582340	-82.265510	-104.571600	 8.858263	-76.197940	 9.011458	 57.619350	 79.180420	-64.861170	-2.385832	 28.452790	-0.000001	 102.027500	-82.184200	-77.071460	-20.336340	-77.488350	-14.845440	-6.244690	 78.797130	 26.826520	 2.384659	 28.388700	-0.000001	 11.159090	 15.452520	 0.381253	-1.816981	 22.336300	 0.861572	-5.647704	-0.774696	 4.236774	-99.149290	 68.200100	 156.833900	 5.960231	-6.841056	-47.670940	-26.624990	 3.884278	-11.160910	-24.120760	-20.525850	-18.112580	-2.027600	 6.559038	 9.033609	-5.188889	 0.308190	 3.541030	-5.234859	 0.342567	 0.430617	 0.337469	 17.499310	-5.965238	-4.639833	-26.599830	-2.968228	 97.435120	 64.645150	-159.203200	-5.703541	 4.148532	 54.029870	 8.268209	 11.435690	 35.401790	 8.230944	-19.390980	 13.748520	 1.803333	 3.979147	-15.098590	 4.898592	 3.004813	-9.310344	 5.224449	 0.395017	 2.014677
-0.036031	 0.308532	 1.006632	 3.255015	 32.036710	-7.705644	 59.668140	-80.897140	-126.648200	 7.046178	-73.802570	 7.169643	 53.811450	 79.043140	-60.550200	-2.385832	 28.452790	-0.000001	 73.478520	-83.304000	-104.829800	-18.500730	-75.144200	-12.923300	-5.740377	 78.362790	 26.198030	 2.384659	 28.388700	-0.000001	 14.629950	 15.487250	-0.033245	-1.128613	 23.270100	-0.237489	-6.749845	-2.461263	 4.060955	-98.517460	 68.741970	 157.979200	 5.455425	-4.434500	-45.292630	-25.308630	 8.683661	-17.761510	-25.131060	-21.126750	-19.114900	-2.027600	 6.559038	 9.033609	-5.188889	 0.308190	 3.541030	-5.234859	 0.342567	 0.430617	-0.481336	 11.329500	-4.136398	-6.103523	-20.437260	-3.777110	 97.080890	 64.150600	-160.566500	-6.941497	 3.804468	 54.181980	 8.666359	 12.165100	 36.792740	 8.236213	-19.464420	 15.618070	 1.803333	 3.979147	-15.098590	 4.898592	 3.004813	-9.310344	 5.224449	 0.395017	 2.014677
-0.034197	 0.308070	 1.023668	 3.034535	 30.331590	-6.977424	 44.954740	-78.709940	-141.615300	 5.958066	-71.455950	 6.046159	 49.822850	 78.878500	-56.207760	-2.385833	 28.452760	 0.000004	 43.355460	-82.525590	-134.259300	-17.311080	-72.754740	-11.633170	-5.259239	 77.948440	 25.534180	 2.384659	 28.388700	-0.000001	 17.304740	 15.560390	-0.328184	-0.585650	 23.924910	-1.025699	-7.550830	-4.131887	 3.686429	-97.469390	 70.195890	 159.090700	 6.086483	-0.817680	-45.226500	-24.128330	 10.526240	-20.632430	-26.185580	-21.796450	-20.724550	-2.027600	 6.559038	 9.033609	-5.188889	 0.308190	 3.541030	-5.234859	 0.342567	 0.430617	-0.960160	 4.403334	-2.660613	-7.021594	-13.645630	-4.132489	 96.659520	 64.327030	-161.500300	-8.360044	 4.783020	 53.822730	 8.151050	 12.485340	 38.379840	 7.870590	-19.196280	 16.743550	 1.803333	 3.979147	-15.098590	 4.898592	 3.004813	-9.310344	 5.224449	 0.395017	 2.014677
-0.031028	 0.307676	 1.046507	 2.647321	 28.020360	-5.852097	 32.753400	-75.095990	-154.285900	 5.429825	-68.255550	 5.432955	 44.934630	 78.567120	-51.080920	-2.385833	 28.452750	 0.000004	 17.809850	-79.203960	-158.990000	-16.324910	-69.292270	-10.472960	-4.749382	 77.400570	 24.896120	 2.384659	 28.388700	-0.000001	 20.093810	 15.699050	-0.684134	 0.113112	 24.424640	-1.940432	-8.216045	-6.126494	 3.225649	-95.147290	 73.915620	 160.237100	 7.655892	 5.464459	-46.968900	-22.655590	 11.735780	-22.918990	-27.685430	-22.797910	-22.689010	-2.027600	 6.559038	 9.033609	-5.188889	 0.308190	 3.541030	-5.234859	 0.342567	 0.430617	-1.340510	-4.584574	-2.151653	-7.513637	-4.979386	-3.301750	 95.472910	 66.527020	-162.770100	-10.220910	 8.433226	 54.109120	 6.863877	 12.635450	 40.853250	 7.860449	-19.966160	 17.804860	 1.803333	 3.979147	-15.098590	 4.898592	 3.004813	-9.310344	 5.224449	 0.395017	 2.014677
-0.026516	 0.304456	 1.072152	 2.564910	 25.609820	-4.579639	 24.551560	-70.716460	-162.867900	 5.331199	-64.629950	 5.232410	 39.967800	 77.976250	-45.930490	-2.385833	 28.452750	 0.000004	 4.578381	-74.199570	-171.272000	-13.158670	-65.353020	-7.290660	-4.268431	 76.958580	 23.311800	 2.384659	 28.388700	-0.000001	 22.358910	 15.478220	-1.229368	 0.671001	 24.690620	-2.836827	-8.568939	-8.258500	 2.694585	-93.140630	 76.722080	 161.595300	 10.167550	 10.629000	-48.432710	-20.834540	 12.849180	-25.449040	-28.076310	-23.590620	-24.668380	-2.027600	 6.559038	 9.033609	-5.188889	 0.308190	 3.541030	-5.234859	 0.342567	 0.430617	-1.665618	-13.283370	-2.239228	-7.789038	 3.255729	-2.093997	 94.219610	 68.935820	-164.108800	-12.669320	 12.297560	 53.983650	 5.283094	 12.889740	 44.477050	 7.728778	-20.833680	 18.272950	 1.803333	 3.979147	-15.098590	 4.898592	 3.004813	-9.310344	 5.224449	 0.395017	 2.014677
-0.022073	 0.297912	 1.097740	 2.956576	 23.841380	-3.718300	 20.361680	-66.412860	-167.151400	 5.132961	-60.767100	 4.846338	 36.037360	 77.184200	-41.699070	-2.385833	 28.452750	 0.000004	-1.578255	-69.255160	-176.313800	-10.528730	-61.188300	-4.719370	-3.016500	 76.130290	 20.918900	 2.384659	 28.388700	-0.000001	 23.841520	 14.209160	-1.681800	 0.936710	 24.387170	-3.305740	-8.599777	-9.798313	 1.886108	-94.056500	 74.860470	 163.704500	 12.016590	 11.727650	-45.990190	-18.506850	 14.834140	-29.925420	-26.825220	-23.612150	-25.968180	-2.027600	 6.559038	 9.033609	-5.188889	 0.308190	 3.541030	-5.234859	 0.342567	 0.430617	-1.701421	-14.818970	-0.996214	-7.771994	 5.174059	-2.493470	 93.832540	 69.044480	-165.381600	-14.542760	 14.526840	 51.410350	 3.554391	 13.169460	 48.976060	 7.057997	-20.884050	 18.414730	 1.803333	 3.979147	-15.098590	 4.898592	 3.004813	-9.310344	 5.224449	 0.395017	 2.014677
-0.019538	 0.286732	 1.130824	 3.178659	 21.964230	-2.814234	 16.395400	-60.851410	-171.308200	 4.674564	-55.357490	 4.192091	 28.627090	 75.996780	-34.022060	-2.385833	 28.452750	 0.000004	-6.580912	-62.914590	 179.912700	-7.894031	-55.178560	-2.256291	-3.456587	 74.526800	 19.632370	 2.384659	 28.388700	-0.000001	 24.881280	 12.033190	-1.444367	 1.662165	 23.678420	-3.709265	-8.449261	-11.314050	 0.997098	-94.655450	 72.763630	 165.871000	 14.328740	 12.462820	-43.603600	-15.453590	 16.402400	-34.918390	-24.429520	-23.237960	-25.415060	-2.027600	 6.559038	 9.033609	-5.188889	 0.308190	 3.541030	-5.234859	 0.342567	 0.430617	-1.833209	-15.205970	-0.826021	-7.339064	 6.429802	-2.137493	 93.994610	 66.071400	-167.593800	-15.882460	 14.315530	 46.470420	 1.198940	 13.398570	 55.731820	 5.603616	-20.053770	 18.288110	 1.803333	 3.979147	-15.098590	 4.898592	 3.004813	-9.310344	 5.224449	 0.395017	 2.014677
-0.017904	 0.274295	 1.158424	 3.414952	 19.680290	-1.742108	 13.683120	-55.068010	-174.583000	 4.215065	-50.678860	 3.586181	 24.303670	 75.267960	-29.095170	-2.385833	 28.452750	 0.000004	-9.618093	-56.213130	 177.876100	-5.878827	-49.722350	-0.558891	-3.806287	 73.698290	 18.310010	 2.384659	 28.388700	-0.000001	 24.855290	 10.021340	-1.322040	 2.017649	 22.518820	-3.863693	-7.961445	-12.066730	 0.276273	-94.805310	 71.126880	 167.759000	 15.908760	 12.963660	-41.738250	-12.515050	 17.210720	-39.309480	-22.094900	-22.511100	-23.862280	-2.027600	 6.559038	 9.033609	-5.188889	 0.308190	 3.541030	-5.234859	 0.342567	 0.430617	-1.864247	-14.567140	-0.641631	-6.700326	 6.900661	-2.046930	 93.712700	 64.454500	-169.372100	-17.053880	 15.164760	 43.771120	-0.669903	 12.760960	 60.122330	 4.365776	-19.387780	 17.892250	 1.803333	 3.979147	-15.098590	 4.898592	 3.004813	-9.310344	 5.224449	 0.395017	 2.014677
-0.016027	 0.257970	 1.177724	 3.470560	 16.163640	-0.912269	 12.664040	-48.260150	-176.804000	 3.615040	-47.357800	 2.967877	 22.153920	 75.635860	-25.831210	-2.385833	 28.452750	 0.000004	-10.817950	-48.979510	 177.652100	-4.201710	-46.048580	 0.680049	-2.876862	 73.956140	 15.644620	 2.384659	 28.388700	-0.000001	 23.722470	 8.660314	-1.191370	 1.806582	 21.101910	-3.370770	-7.107119	-11.687850	-0.031861	-94.586540	 70.358360	 169.445600	 16.777860	 13.354760	-40.705950	-9.916820	 17.128340	-42.443550	-20.214900	-21.933240	-23.340490	-2.027600	 6.559038	 9.033609	-5.188889	 0.308190	 3.541030	-5.234859	 0.342567	 0.430617	-1.921630	-13.028340	-0.907056	-5.840930	 6.606537	-1.890702	 93.333990	 63.531510	-170.801200	-18.267170	 16.658590	 43.274190	-1.959941	 11.487680	 61.912420	 3.297138	-18.590910	 17.886650	 1.803333	 3.979147	-15.098590	 4.898592	 3.004813	-9.310344	 5.224449	 0.395017	 2.014677
-0.013777	 0.241170	 1.192346	 3.474303	 12.880750	-0.752360	 12.527920	-41.517750	-177.795400	 3.006988	-43.740000	 2.368456	 18.339880	 75.187310	-21.020220	-2.385833	 28.452760	 0.000004	-11.020920	-42.749100	 178.547500	-2.912488	-43.231980	 1.530457	-1.164786	 73.868830	 12.336000	 2.384659	 28.388700	-0.000001	 21.835670	 7.319492	-0.805659	 1.318833	 18.955690	-2.472598	-6.135298	-10.725290	 0.003800	-94.295520	 70.053400	 170.785500	 17.345960	 13.749310	-39.596410	-7.546646	 16.855160	-45.433500	-18.735850	-21.485810	-22.927520	-2.027600	 6.559038	 9.033609	-5.188889	 0.308190	 3.541030	-5.234859	 0.342567	 0.430617	-2.046770	-11.275640	-1.388265	-4.851499	 5.908863	-1.740394	 92.969550	 62.779550	-172.078800	-19.434590	 17.877600	 42.389380	-2.976470	 10.461390	 63.892960	 2.767197	-18.676970	 17.967840	 1.803333	 3.979147	-15.098590	 4.898592	 3.004813	-9.310344	 5.224449	 0.395017	 2.014677
-0.013069	 0.221892	 1.208850	 3.134244	 11.125330	-0.355289	 12.584200	-36.314740	-178.735200	 2.728710	-39.697430	 2.010171	 16.018670	 75.282710	-18.092540	-2.385833	 28.452750	 0.000004	-11.063400	-37.482310	 178.786300	-1.849422	-39.031290	 2.077560	-1.063840	 73.564030	 10.884050	 2.384659	 28.388700	-0.000001	 18.718670	 5.347318	-0.365815	 0.865333	 14.397080	-1.381859	-4.676837	-9.357216	-0.104222	-93.992610	 69.813670	 172.053200	 17.804790	 14.529320	-38.249030	-5.002633	 16.022580	-48.241010	-17.282390	-20.591880	-22.624980	-2.027600	 6.559038	 9.033609	-5.188889	 0.308190	 3.541030	-5.234859	 0.342567	 0.430617	-2.254014	-9.569418	-1.857121	-3.534548	 5.541041	-1.662166	 92.496880	 62.381770	-173.354800	-20.841530	 19.572620	 41.390540	-4.250789	 8.800353	 66.136860	 1.945849	-18.596900	 17.765710	 1.803333	 3.979147	-15.098590	 4.898592	 3.004813	-9.310344	 5.224449	 0.395017	 2.014677
-0.013169	 0.201127	 1.221696	 2.906826	 10.073840	-0.121984	 12.677370	-32.483830	-179.368800	 2.558512	-36.461010	 1.769036	 13.303200	 74.989670	-14.922490	-2.385833	 28.452750	 0.000004	-11.123120	-33.483780	 178.929400	-0.837883	-35.408570	 2.499429	-1.291885	 73.171310	 9.875358	 2.384659	 28.388700	-0.000001	 14.546850	 4.108429	-0.078733	 0.310322	 9.569282	-0.435626	-2.992642	-7.650098	-0.061717	-93.667930	 69.651920	 173.304600	 18.116830	 14.379060	-37.509770	-2.655437	 14.781700	-50.495980	-15.980760	-20.377970	-24.516910	-2.027600	 6.559038	 9.033609	-5.188889	 0.308190	 3.541030	-5.234859	 0.342567	 0.430617	-2.349444	-7.888890	-2.297535	-2.148908	 5.448935	-1.797105	 92.014820	 62.380250	-174.533600	-21.940250	 21.323570	 41.471350	-5.274799	 6.948914	 67.455690	 1.262381	-18.502110	 18.063620	 1.803333	 3.979147	-15.098590	 4.898592	 3.004813	-9.310344	 5.224449	 0.395017	 2.014677
-0.013806	 0.178633	 1.229340	 3.260710	 7.922081	 0.052223	 12.244510	-27.933120	 179.582000	 2.203194	-34.613910	 1.488826	 10.118440	 75.459260	-10.945420	-2.385833	 28.452750	 0.000004	-11.710910	-28.852720	 179.301800	-0.009207	-33.468990	 2.838313	-0.200312	 73.723880	 7.618156	 2.384659	 28.388700	-0.000001	 9.701606	 3.689630	 0.096677	-0.348570	 5.462066	 0.026489	-1.386304	-5.454006	 0.010022	-93.313230	 69.213160	 174.744100	 18.595960	 14.933160	-37.281910	-0.468095	 13.381860	-52.661540	-14.591510	-20.180640	-24.249740	-2.027600	 6.559038	 9.033609	-5.188889	 0.308190	 3.541030	-5.234859	 0.342567	 0.430617	-2.285461	-5.627927	-2.374205	-0.674244	 4.743613	-1.902074	 91.549780	 62.529780	-175.646000	-23.126130	 22.911480	 41.585570	-6.061872	 5.120819	 67.851880	 0.587228	-18.186070	 18.331700	 1.803333	 3.979147	-15.098590	 4.898592	 3.004813	-9.310344	 5.224449	 0.395017	 2.014677
